<svg xmlns="http://www.w3.org/2000/svg" version="1.1" xmlns:xlink="http://www.w3.org/1999/xlink" xmlns:svgjs="http://svgjs.com/svgjs" width="1440" height="560" preserveAspectRatio="none" viewBox="0 0 1440 560"><g mask="url(&quot;#SvgjsMask1001&quot;)" fill="none"><path d="M809.58 103.18a25.66 25.66 0 1 0 21.85-46.44z" fill="#e73635"></path><path d="M368.87 483.24a11.84 11.84 0 1 0 21.07 10.82z" fill="#037b0b"></path><path d="M493.91 302.71 a13.95 13.95 0 1 0 27.9 0 a13.95 13.95 0 1 0 -27.9 0z" stroke="#037b0b"></path><path d="M1253.72 329.47L1272.57 329.47L1272.57 348.32L1253.72 348.32z" fill="#d3b714"></path><path d="M704.47 558.5L748.18 558.5L748.18 605.69L704.47 605.69z" stroke="#037b0b"></path><path d="M32.46 482.17 a17.58 17.58 0 1 0 35.16 0 a17.58 17.58 0 1 0 -35.16 0z" fill="#e73635"></path><path d="M562.74 525.56L570.53 525.56L570.53 555.64L562.74 555.64z" fill="#e73635"></path><path d="M970.35 131.05L978.6 131.05L978.6 139.3L970.35 139.3z" fill="#d3b714"></path><path d="M1040.04 56.63L1093.1 56.63L1093.1 109.69L1040.04 109.69z" stroke="#d3b714"></path><path d="M540.52 214.03L573.91 214.03L573.91 225.91L540.52 225.91z" fill="#d3b714"></path><path d="M91.38 554.12L100.8 554.12L100.8 563.54L91.38 563.54z" stroke="#e73635"></path><path d="M1241.4 24.1L1261.01 24.1L1261.01 79.3L1241.4 79.3z" fill="#e73635"></path><path d="M1025.74 472.77 a19.1 19.1 0 1 0 38.2 0 a19.1 19.1 0 1 0 -38.2 0z" stroke="#d3b714"></path><path d="M302.26 209.64L337.3 209.64L337.3 220.32L302.26 220.32z" fill="#d3b714"></path><path d="M1278.23 483.28 a28.04 28.04 0 1 0 56.08 0 a28.04 28.04 0 1 0 -56.08 0z" fill="#d3b714"></path><path d="M690.98 120.32L698.6 120.32L698.6 127.94L690.98 127.94z" stroke="#d3b714"></path><path d="M642.23 557.51L667.31 557.51L667.31 582.59L642.23 582.59z" stroke="#037b0b"></path><path d="M351.67 369.7L358.15 369.7L358.15 376.18L351.67 376.18z" stroke="#e73635"></path><path d="M810.26 212.16a6.65 6.65 0 1 0-6.23 11.75z" fill="#d3b714"></path><path d="M340.05 315.99a51.02 51.02 0 1 0-76.5 67.53z" stroke="#037b0b"></path><path d="M400.99 419.75a38.65 38.65 0 1 0-65.95 40.32z" stroke="#e73635"></path><path d="M1139.86 277.06L1159.95 277.06L1159.95 303.68L1139.86 303.68z" stroke="#037b0b"></path><path d="M929.15 527.71 a42.65 42.65 0 1 0 85.3 0 a42.65 42.65 0 1 0 -85.3 0z" fill="#d3b714"></path><path d="M474.58 544.01L502.31 544.01L502.31 571.74L474.58 571.74z" stroke="#d3b714"></path><path d="M322.32 469.87a41.27 41.27 0 1 0 69.85 43.98z" stroke="#037b0b"></path><path d="M498.27 132.81a28.98 28.98 0 1 0-21.5-53.83z" stroke="#e73635"></path><path d="M1146.75 153.94a50.7 50.7 0 1 0 4.66-101.3z" stroke="#e73635"></path><path d="M891.52 559.3L926.74 559.3L926.74 594.52L891.52 594.52z" stroke="#e73635"></path><path d="M994.58 333.1L1041.52 333.1L1041.52 342.02L994.58 342.02z" stroke="#d3b714"></path><path d="M587.7 512.46a47.45 47.45 0 1 0 10.36 94.34z" stroke="#e73635"></path><path d="M1184.26 17.55a39.13 39.13 0 1 0-52.03 58.47z" stroke="#d3b714"></path><path d="M277.16 182.57L308.78 182.57L308.78 214.19L277.16 214.19z" fill="#e73635"></path><path d="M1042.97 181.68L1062.58 181.68L1062.58 184.28L1042.97 184.28z" stroke="#d3b714"></path></g><defs><mask id="SvgjsMask1001"><rect width="1440" height="560" fill="#ffffff"></rect></mask></defs></svg>