<svg xmlns="http://www.w3.org/2000/svg" version="1.1" xmlns:xlink="http://www.w3.org/1999/xlink" xmlns:svgjs="http://svgjs.com/svgjs" width="1440" height="560" preserveAspectRatio="none" viewBox="0 0 1440 560"><g mask="url(&quot;#SvgjsMask1000&quot;)" fill="none"><rect width="1440" height="560" x="0" y="0" fill="#0e2a47"></rect><path d="M-73.47 361.65L-73.47 361.65" stroke="#132e65" stroke-width="1.5"></path><path d="M-73.47 361.65L-82.97 493.52" stroke="#132e65" stroke-width="1.5"></path><path d="M-73.47 361.65L94.22 371.9" stroke="#132e65" stroke-width="1.5"></path><path d="M-73.47 361.65L95.21 541.35" stroke="#132e65" stroke-width="1.5"></path><path d="M-73.47 361.65L-52.88 639.02" stroke="#132e65" stroke-width="1.5"></path><path d="M-73.47 361.65L44.95 643.88" stroke="#132e65" stroke-width="1.5"></path><path d="M-82.97 493.52L-82.97 493.52" stroke="#132e65" stroke-width="1.5"></path><path d="M-82.97 493.52L-52.88 639.02" stroke="#132e65" stroke-width="1.5"></path><path d="M-82.97 493.52L95.21 541.35" stroke="#132e65" stroke-width="1.5"></path><path d="M-82.97 493.52L44.95 643.88" stroke="#132e65" stroke-width="1.5"></path><path d="M-82.97 493.52L94.22 371.9" stroke="#132e65" stroke-width="1.5"></path><path d="M-52.88 639.02L-52.88 639.02" stroke="#132e65" stroke-width="1.5"></path><path d="M-52.88 639.02L44.95 643.88" stroke="#132e65" stroke-width="1.5"></path><path d="M-52.88 639.02L95.21 541.35" stroke="#132e65" stroke-width="1.5"></path><path d="M94.22 371.9L94.22 371.9" stroke="#132e65" stroke-width="1.5"></path><path d="M94.22 371.9L95.21 541.35" stroke="#132e65" stroke-width="1.5"></path><path d="M94.22 371.9L223.04 493.68" stroke="#132e65" stroke-width="1.5"></path><path d="M94.22 371.9L44.95 643.88" stroke="#132e65" stroke-width="1.5"></path><path d="M94.22 371.9L372.06 488.68" stroke="#132e65" stroke-width="1.5"></path><path d="M95.21 541.35L95.21 541.35" stroke="#132e65" stroke-width="1.5"></path><path d="M95.21 541.35L44.95 643.88" stroke="#132e65" stroke-width="1.5"></path><path d="M95.21 541.35L223.04 493.68" stroke="#132e65" stroke-width="1.5"></path><path d="M95.21 541.35L238.94 682.77" stroke="#132e65" stroke-width="1.5"></path><path d="M44.95 643.88L44.95 643.88" stroke="#132e65" stroke-width="1.5"></path><path d="M44.95 643.88L238.94 682.77" stroke="#132e65" stroke-width="1.5"></path><path d="M44.95 643.88L223.04 493.68" stroke="#132e65" stroke-width="1.5"></path><path d="M223.04 493.68L223.04 493.68" stroke="#132e65" stroke-width="1.5"></path><path d="M223.04 493.68L372.06 488.68" stroke="#132e65" stroke-width="1.5"></path><path d="M223.04 493.68L238.94 682.77" stroke="#132e65" stroke-width="1.5"></path><path d="M238.94 682.77L238.94 682.77" stroke="#132e65" stroke-width="1.5"></path><path d="M238.94 682.77L382.61 663.82" stroke="#132e65" stroke-width="1.5"></path><path d="M238.94 682.77L372.06 488.68" stroke="#132e65" stroke-width="1.5"></path><path d="M396.36 400.76L396.36 400.76" stroke="#132e65" stroke-width="1.5"></path><path d="M396.36 400.76L372.06 488.68" stroke="#132e65" stroke-width="1.5"></path><path d="M396.36 400.76L529.02 408.82" stroke="#132e65" stroke-width="1.5"></path><path d="M372.06 488.68L372.06 488.68" stroke="#132e65" stroke-width="1.5"></path><path d="M372.06 488.68L382.61 663.82" stroke="#132e65" stroke-width="1.5"></path><path d="M382.61 663.82L382.61 663.82" stroke="#132e65" stroke-width="1.5"></path><path d="M529.02 408.82L529.02 408.82" stroke="#132e65" stroke-width="1.5"></path><path d="M685.96 351.48L685.96 351.48" stroke="#132e65" stroke-width="1.5"></path><path d="M685.96 351.48L831.65 397.23" stroke="#132e65" stroke-width="1.5"></path><path d="M685.96 351.48L529.02 408.82" stroke="#132e65" stroke-width="1.5"></path><path d="M685.96 351.48L831.87 221.51" stroke="#132e65" stroke-width="1.5"></path><path d="M685.96 351.48L677.81 558.35" stroke="#132e65" stroke-width="1.5"></path><path d="M685.96 351.48L847.94 532.76" stroke="#132e65" stroke-width="1.5"></path><path d="M677.81 558.35L677.81 558.35" stroke="#132e65" stroke-width="1.5"></path><path d="M677.81 558.35L639.18 690.33" stroke="#132e65" stroke-width="1.5"></path><path d="M639.18 690.33L639.18 690.33" stroke="#132e65" stroke-width="1.5"></path><path d="M639.18 690.33L843.41 647.14" stroke="#132e65" stroke-width="1.5"></path><path d="M639.18 690.33L382.61 663.82" stroke="#132e65" stroke-width="1.5"></path><path d="M639.18 690.33L847.94 532.76" stroke="#132e65" stroke-width="1.5"></path><path d="M639.18 690.33L529.02 408.82" stroke="#132e65" stroke-width="1.5"></path><path d="M831.87 221.51L831.87 221.51" stroke="#132e65" stroke-width="1.5"></path><path d="M831.87 221.51L960.24 195.7" stroke="#132e65" stroke-width="1.5"></path><path d="M831.87 221.51L831.65 397.23" stroke="#132e65" stroke-width="1.5"></path><path d="M831.87 221.51L1008.08 91.03" stroke="#132e65" stroke-width="1.5"></path><path d="M831.65 397.23L831.65 397.23" stroke="#132e65" stroke-width="1.5"></path><path d="M831.65 397.23L847.94 532.76" stroke="#132e65" stroke-width="1.5"></path><path d="M831.65 397.23L1010.65 382.73" stroke="#132e65" stroke-width="1.5"></path><path d="M847.94 532.76L847.94 532.76" stroke="#132e65" stroke-width="1.5"></path><path d="M847.94 532.76L843.41 647.14" stroke="#132e65" stroke-width="1.5"></path><path d="M847.94 532.76L677.81 558.35" stroke="#132e65" stroke-width="1.5"></path><path d="M847.94 532.76L979.78 667.99" stroke="#132e65" stroke-width="1.5"></path><path d="M847.94 532.76L1010.65 382.73" stroke="#132e65" stroke-width="1.5"></path><path d="M843.41 647.14L843.41 647.14" stroke="#132e65" stroke-width="1.5"></path><path d="M843.41 647.14L979.78 667.99" stroke="#132e65" stroke-width="1.5"></path><path d="M843.41 647.14L677.81 558.35" stroke="#132e65" stroke-width="1.5"></path><path d="M939.56 -48.16L939.56 -48.16" stroke="#132e65" stroke-width="1.5"></path><path d="M939.56 -48.16L1008.08 91.03" stroke="#132e65" stroke-width="1.5"></path><path d="M939.56 -48.16L1089.33 -95.72" stroke="#132e65" stroke-width="1.5"></path><path d="M939.56 -48.16L1096.8 100.89" stroke="#132e65" stroke-width="1.5"></path><path d="M939.56 -48.16L960.24 195.7" stroke="#132e65" stroke-width="1.5"></path><path d="M939.56 -48.16L831.87 221.51" stroke="#132e65" stroke-width="1.5"></path><path d="M1008.08 91.03L1008.08 91.03" stroke="#132e65" stroke-width="1.5"></path><path d="M1008.08 91.03L1096.8 100.89" stroke="#132e65" stroke-width="1.5"></path><path d="M1008.08 91.03L960.24 195.7" stroke="#132e65" stroke-width="1.5"></path><path d="M960.24 195.7L960.24 195.7" stroke="#132e65" stroke-width="1.5"></path><path d="M960.24 195.7L1096.8 100.89" stroke="#132e65" stroke-width="1.5"></path><path d="M960.24 195.7L1010.65 382.73" stroke="#132e65" stroke-width="1.5"></path><path d="M960.24 195.7L831.65 397.23" stroke="#132e65" stroke-width="1.5"></path><path d="M1010.65 382.73L1010.65 382.73" stroke="#132e65" stroke-width="1.5"></path><path d="M1010.65 382.73L1148.4 391.46" stroke="#132e65" stroke-width="1.5"></path><path d="M979.78 667.99L979.78 667.99" stroke="#132e65" stroke-width="1.5"></path><path d="M979.78 667.99L1139.19 706.77" stroke="#132e65" stroke-width="1.5"></path><path d="M1089.33 -95.72L1089.33 -95.72" stroke="#132e65" stroke-width="1.5"></path><path d="M1089.33 -95.72L1264.47 -65.2" stroke="#132e65" stroke-width="1.5"></path><path d="M1089.33 -95.72L1096.8 100.89" stroke="#132e65" stroke-width="1.5"></path><path d="M1089.33 -95.72L1008.08 91.03" stroke="#132e65" stroke-width="1.5"></path><path d="M1089.33 -95.72L1241.69 72.18" stroke="#132e65" stroke-width="1.5"></path><path d="M1089.33 -95.72L1400.98 -49.77" stroke="#132e65" stroke-width="1.5"></path><path d="M1096.8 100.89L1096.8 100.89" stroke="#132e65" stroke-width="1.5"></path><path d="M1096.8 100.89L1241.69 72.18" stroke="#132e65" stroke-width="1.5"></path><path d="M1096.8 100.89L1264.47 -65.2" stroke="#132e65" stroke-width="1.5"></path><path d="M1148.4 391.46L1148.4 391.46" stroke="#132e65" stroke-width="1.5"></path><path d="M1148.4 391.46L1292.06 387.06" stroke="#132e65" stroke-width="1.5"></path><path d="M1148.4 391.46L1112.44 545.08" stroke="#132e65" stroke-width="1.5"></path><path d="M1148.4 391.46L1277.5 560.22" stroke="#132e65" stroke-width="1.5"></path><path d="M1148.4 391.46L1298.02 236.34" stroke="#132e65" stroke-width="1.5"></path><path d="M1148.4 391.46L960.24 195.7" stroke="#132e65" stroke-width="1.5"></path><path d="M1112.44 545.08L1112.44 545.08" stroke="#132e65" stroke-width="1.5"></path><path d="M1112.44 545.08L1139.19 706.77" stroke="#132e65" stroke-width="1.5"></path><path d="M1112.44 545.08L1277.5 560.22" stroke="#132e65" stroke-width="1.5"></path><path d="M1112.44 545.08L979.78 667.99" stroke="#132e65" stroke-width="1.5"></path><path d="M1112.44 545.08L1010.65 382.73" stroke="#132e65" stroke-width="1.5"></path><path d="M1112.44 545.08L1269.54 677.5" stroke="#132e65" stroke-width="1.5"></path><path d="M1139.19 706.77L1139.19 706.77" stroke="#132e65" stroke-width="1.5"></path><path d="M1139.19 706.77L1269.54 677.5" stroke="#132e65" stroke-width="1.5"></path><path d="M1139.19 706.77L1277.5 560.22" stroke="#132e65" stroke-width="1.5"></path><path d="M1139.19 706.77L1390.71 693.53" stroke="#132e65" stroke-width="1.5"></path><path d="M1139.19 706.77L843.41 647.14" stroke="#132e65" stroke-width="1.5"></path><path d="M1264.47 -65.2L1264.47 -65.2" stroke="#132e65" stroke-width="1.5"></path><path d="M1264.47 -65.2L1400.98 -49.77" stroke="#132e65" stroke-width="1.5"></path><path d="M1264.47 -65.2L1241.69 72.18" stroke="#132e65" stroke-width="1.5"></path><path d="M1264.47 -65.2L1460.05 42.38" stroke="#132e65" stroke-width="1.5"></path><path d="M1264.47 -65.2L1008.08 91.03" stroke="#132e65" stroke-width="1.5"></path><path d="M1241.69 72.18L1241.69 72.18" stroke="#132e65" stroke-width="1.5"></path><path d="M1298.02 236.34L1298.02 236.34" stroke="#132e65" stroke-width="1.5"></path><path d="M1298.02 236.34L1292.06 387.06" stroke="#132e65" stroke-width="1.5"></path><path d="M1298.02 236.34L1448.12 255.47" stroke="#132e65" stroke-width="1.5"></path><path d="M1298.02 236.34L1241.69 72.18" stroke="#132e65" stroke-width="1.5"></path><path d="M1292.06 387.06L1292.06 387.06" stroke="#132e65" stroke-width="1.5"></path><path d="M1292.06 387.06L1441.09 412.27" stroke="#132e65" stroke-width="1.5"></path><path d="M1292.06 387.06L1277.5 560.22" stroke="#132e65" stroke-width="1.5"></path><path d="M1292.06 387.06L1442.76 498.24" stroke="#132e65" stroke-width="1.5"></path><path d="M1292.06 387.06L1448.12 255.47" stroke="#132e65" stroke-width="1.5"></path><path d="M1277.5 560.22L1277.5 560.22" stroke="#132e65" stroke-width="1.5"></path><path d="M1277.5 560.22L1269.54 677.5" stroke="#132e65" stroke-width="1.5"></path><path d="M1277.5 560.22L1390.71 693.53" stroke="#132e65" stroke-width="1.5"></path><path d="M1277.5 560.22L1442.76 498.24" stroke="#132e65" stroke-width="1.5"></path><path d="M1269.54 677.5L1269.54 677.5" stroke="#132e65" stroke-width="1.5"></path><path d="M1269.54 677.5L1390.71 693.53" stroke="#132e65" stroke-width="1.5"></path><path d="M1269.54 677.5L1442.76 498.24" stroke="#132e65" stroke-width="1.5"></path><path d="M1269.54 677.5L1549.72 665.05" stroke="#132e65" stroke-width="1.5"></path><path d="M1400.98 -49.77L1400.98 -49.77" stroke="#132e65" stroke-width="1.5"></path><path d="M1400.98 -49.77L1460.05 42.38" stroke="#132e65" stroke-width="1.5"></path><path d="M1400.98 -49.77L1589.09 -77.42" stroke="#132e65" stroke-width="1.5"></path><path d="M1400.98 -49.77L1241.69 72.18" stroke="#132e65" stroke-width="1.5"></path><path d="M1400.98 -49.77L1553.84 205.17" stroke="#132e65" stroke-width="1.5"></path><path d="M1400.98 -49.77L1298.02 236.34" stroke="#132e65" stroke-width="1.5"></path><path d="M1460.05 42.38L1460.05 42.38" stroke="#132e65" stroke-width="1.5"></path><path d="M1460.05 42.38L1589.09 -77.42" stroke="#132e65" stroke-width="1.5"></path><path d="M1460.05 42.38L1553.84 205.17" stroke="#132e65" stroke-width="1.5"></path><path d="M1448.12 255.47L1448.12 255.47" stroke="#132e65" stroke-width="1.5"></path><path d="M1448.12 255.47L1553.84 205.17" stroke="#132e65" stroke-width="1.5"></path><path d="M1448.12 255.47L1441.09 412.27" stroke="#132e65" stroke-width="1.5"></path><path d="M1448.12 255.47L1588.32 348.89" stroke="#132e65" stroke-width="1.5"></path><path d="M1441.09 412.27L1441.09 412.27" stroke="#132e65" stroke-width="1.5"></path><path d="M1441.09 412.27L1442.76 498.24" stroke="#132e65" stroke-width="1.5"></path><path d="M1441.09 412.27L1541.73 505.44" stroke="#132e65" stroke-width="1.5"></path><path d="M1442.76 498.24L1442.76 498.24" stroke="#132e65" stroke-width="1.5"></path><path d="M1442.76 498.24L1541.73 505.44" stroke="#132e65" stroke-width="1.5"></path><path d="M1390.71 693.53L1390.71 693.53" stroke="#132e65" stroke-width="1.5"></path><path d="M1390.71 693.53L1549.72 665.05" stroke="#132e65" stroke-width="1.5"></path><path d="M1589.09 -77.42L1589.09 -77.42" stroke="#132e65" stroke-width="1.5"></path><path d="M1553.84 205.17L1553.84 205.17" stroke="#132e65" stroke-width="1.5"></path><path d="M1553.84 205.17L1588.32 348.89" stroke="#132e65" stroke-width="1.5"></path><path d="M1553.84 205.17L1441.09 412.27" stroke="#132e65" stroke-width="1.5"></path><path d="M1553.84 205.17L1298.02 236.34" stroke="#132e65" stroke-width="1.5"></path><path d="M1553.84 205.17L1589.09 -77.42" stroke="#132e65" stroke-width="1.5"></path><path d="M1588.32 348.89L1588.32 348.89" stroke="#132e65" stroke-width="1.5"></path><path d="M1588.32 348.89L1441.09 412.27" stroke="#132e65" stroke-width="1.5"></path><path d="M1588.32 348.89L1541.73 505.44" stroke="#132e65" stroke-width="1.5"></path><path d="M1588.32 348.89L1442.76 498.24" stroke="#132e65" stroke-width="1.5"></path><path d="M1541.73 505.44L1541.73 505.44" stroke="#132e65" stroke-width="1.5"></path><path d="M1541.73 505.44L1549.72 665.05" stroke="#132e65" stroke-width="1.5"></path><path d="M1541.73 505.44L1390.71 693.53" stroke="#132e65" stroke-width="1.5"></path><path d="M1549.72 665.05L1549.72 665.05" stroke="#132e65" stroke-width="1.5"></path><path d="M1549.72 665.05L1442.76 498.24" stroke="#132e65" stroke-width="1.5"></path><path d="M1549.72 665.05L1441.09 412.27" stroke="#132e65" stroke-width="1.5"></path><circle r="5" cx="-73.47" cy="361.65" fill="#132e65"></circle><circle r="5" cx="-82.97" cy="493.52" fill="#132e65"></circle><circle r="5" cx="-52.88" cy="639.02" fill="#132e65"></circle><circle r="5" cx="94.22" cy="371.9" fill="#132e65"></circle><circle r="5" cx="95.21" cy="541.35" fill="#132e65"></circle><circle r="5" cx="44.95" cy="643.88" fill="#132e65"></circle><circle r="5" cx="223.04" cy="493.68" fill="#132e65"></circle><circle r="5" cx="238.94" cy="682.77" fill="#132e65"></circle><circle r="5" cx="396.36" cy="400.76" fill="#132e65"></circle><circle r="5" cx="372.06" cy="488.68" fill="#132e65"></circle><circle r="5" cx="382.61" cy="663.82" fill="#132e65"></circle><circle r="5" cx="529.02" cy="408.82" fill="#132e65"></circle><circle r="5" cx="685.96" cy="351.48" fill="#132e65"></circle><circle r="5" cx="677.81" cy="558.35" fill="#132e65"></circle><circle r="5" cx="639.18" cy="690.33" fill="#132e65"></circle><circle r="5" cx="831.87" cy="221.51" fill="#132e65"></circle><circle r="5" cx="831.65" cy="397.23" fill="#132e65"></circle><circle r="5" cx="847.94" cy="532.76" fill="#132e65"></circle><circle r="5" cx="843.41" cy="647.14" fill="#132e65"></circle><circle r="5" cx="939.56" cy="-48.16" fill="#132e65"></circle><circle r="5" cx="1008.08" cy="91.03" fill="#132e65"></circle><circle r="5" cx="960.24" cy="195.7" fill="#132e65"></circle><circle r="5" cx="1010.65" cy="382.73" fill="#132e65"></circle><circle r="5" cx="979.78" cy="667.99" fill="#132e65"></circle><circle r="5" cx="1089.33" cy="-95.72" fill="#132e65"></circle><circle r="5" cx="1096.8" cy="100.89" fill="#132e65"></circle><circle r="5" cx="1148.4" cy="391.46" fill="#132e65"></circle><circle r="5" cx="1112.44" cy="545.08" fill="#132e65"></circle><circle r="5" cx="1139.19" cy="706.77" fill="#132e65"></circle><circle r="5" cx="1264.47" cy="-65.2" fill="#132e65"></circle><circle r="5" cx="1241.69" cy="72.18" fill="#132e65"></circle><circle r="5" cx="1298.02" cy="236.34" fill="#132e65"></circle><circle r="5" cx="1292.06" cy="387.06" fill="#132e65"></circle><circle r="5" cx="1277.5" cy="560.22" fill="#132e65"></circle><circle r="5" cx="1269.54" cy="677.5" fill="#132e65"></circle><circle r="5" cx="1400.98" cy="-49.77" fill="#132e65"></circle><circle r="5" cx="1460.05" cy="42.38" fill="#132e65"></circle><circle r="5" cx="1448.12" cy="255.47" fill="#132e65"></circle><circle r="5" cx="1441.09" cy="412.27" fill="#132e65"></circle><circle r="5" cx="1442.76" cy="498.24" fill="#132e65"></circle><circle r="5" cx="1390.71" cy="693.53" fill="#132e65"></circle><circle r="5" cx="1589.09" cy="-77.42" fill="#132e65"></circle><circle r="5" cx="1553.84" cy="205.17" fill="#132e65"></circle><circle r="5" cx="1588.32" cy="348.89" fill="#132e65"></circle><circle r="5" cx="1541.73" cy="505.44" fill="#132e65"></circle><circle r="5" cx="1549.72" cy="665.05" fill="#132e65"></circle><path d="M-53.28 506.9L-53.28 506.9" stroke="hsl(228.5, 77.2%, 51.5%)" stroke-width="1.5"></path><path d="M-53.28 506.9L81.77 543.91" stroke="hsl(228.5, 77.2%, 51.5%)" stroke-width="1.5"></path><path d="M-53.28 506.9L-96.47 672.39" stroke="hsl(228.5, 77.2%, 51.5%)" stroke-width="1.5"></path><path d="M-53.28 506.9L78.51 646.18" stroke="hsl(228.5, 77.2%, 51.5%)" stroke-width="1.5"></path><path d="M-53.28 506.9L196.1 496.6" stroke="hsl(228.5, 77.2%, 51.5%)" stroke-width="1.5"></path><path d="M-53.28 506.9L256.31 670.87" stroke="hsl(228.5, 77.2%, 51.5%)" stroke-width="1.5"></path><path d="M81.77 543.91L81.77 543.91" stroke="hsl(228.5, 77.2%, 51.5%)" stroke-width="1.5"></path><path d="M81.77 543.91L78.51 646.18" stroke="hsl(228.5, 77.2%, 51.5%)" stroke-width="1.5"></path><path d="M81.77 543.91L196.1 496.6" stroke="hsl(228.5, 77.2%, 51.5%)" stroke-width="1.5"></path><path d="M81.77 543.91L256.31 670.87" stroke="hsl(228.5, 77.2%, 51.5%)" stroke-width="1.5"></path><path d="M510.25 641.14L510.25 641.14" stroke="hsl(228.5, 77.2%, 51.5%)" stroke-width="1.5"></path><path d="M510.25 641.14L410.42 674.95" stroke="hsl(228.5, 77.2%, 51.5%)" stroke-width="1.5"></path><path d="M510.25 641.14L655.58 646.59" stroke="hsl(228.5, 77.2%, 51.5%)" stroke-width="1.5"></path><path d="M510.25 641.14L404.53 517.44" stroke="hsl(228.5, 77.2%, 51.5%)" stroke-width="1.5"></path><path d="M510.25 641.14L256.31 670.87" stroke="hsl(228.5, 77.2%, 51.5%)" stroke-width="1.5"></path><path d="M510.25 641.14L815 655.31" stroke="hsl(228.5, 77.2%, 51.5%)" stroke-width="1.5"></path><path d="M815 655.31L815 655.31" stroke="hsl(228.5, 77.2%, 51.5%)" stroke-width="1.5"></path><path d="M815 655.31L854.15 546.77" stroke="hsl(228.5, 77.2%, 51.5%)" stroke-width="1.5"></path><path d="M815 655.31L655.58 646.59" stroke="hsl(228.5, 77.2%, 51.5%)" stroke-width="1.5"></path><path d="M815 655.31L961.66 557.01" stroke="hsl(228.5, 77.2%, 51.5%)" stroke-width="1.5"></path><path d="M996.18 651.94L996.18 651.94" stroke="hsl(228.5, 77.2%, 51.5%)" stroke-width="1.5"></path><path d="M996.18 651.94L961.66 557.01" stroke="hsl(228.5, 77.2%, 51.5%)" stroke-width="1.5"></path><path d="M996.18 651.94L1156.89 648.48" stroke="hsl(228.5, 77.2%, 51.5%)" stroke-width="1.5"></path><path d="M996.18 651.94L1119.19 548.13" stroke="hsl(228.5, 77.2%, 51.5%)" stroke-width="1.5"></path><path d="M996.18 651.94L854.15 546.77" stroke="hsl(228.5, 77.2%, 51.5%)" stroke-width="1.5"></path><path d="M996.18 651.94L815 655.31" stroke="hsl(228.5, 77.2%, 51.5%)" stroke-width="1.5"></path><path d="M1275.26 529.09L1275.26 529.09" stroke="hsl(228.5, 77.2%, 51.5%)" stroke-width="1.5"></path><path d="M1275.26 529.09L1251.98 678.92" stroke="hsl(228.5, 77.2%, 51.5%)" stroke-width="1.5"></path><path d="M1275.26 529.09L1119.19 548.13" stroke="hsl(228.5, 77.2%, 51.5%)" stroke-width="1.5"></path><path d="M1275.26 529.09L1431.49 555.25" stroke="hsl(228.5, 77.2%, 51.5%)" stroke-width="1.5"></path><path d="M1275.26 529.09L1156.89 648.48" stroke="hsl(228.5, 77.2%, 51.5%)" stroke-width="1.5"></path><path d="M1424.06 -60.26L1424.06 -60.26" stroke="hsl(228.5, 77.2%, 51.5%)" stroke-width="1.5"></path><path d="M1424.06 -60.26L1540.47 -68.17" stroke="hsl(228.5, 77.2%, 51.5%)" stroke-width="1.5"></path><path d="M1424.06 -60.26L1416.96 56.97" stroke="hsl(228.5, 77.2%, 51.5%)" stroke-width="1.5"></path><path d="M1424.06 -60.26L1252.27 -57.39" stroke="hsl(228.5, 77.2%, 51.5%)" stroke-width="1.5"></path><path d="M1416.96 56.97L1416.96 56.97" stroke="hsl(228.5, 77.2%, 51.5%)" stroke-width="1.5"></path><path d="M1416.96 56.97L1546.44 109.82" stroke="hsl(228.5, 77.2%, 51.5%)" stroke-width="1.5"></path><path d="M1416.96 56.97L1540.47 -68.17" stroke="hsl(228.5, 77.2%, 51.5%)" stroke-width="1.5"></path><path d="M1410.87 386.19L1410.87 386.19" stroke="hsl(228.5, 77.2%, 51.5%)" stroke-width="1.5"></path><path d="M1410.87 386.19L1458.05 259.1" stroke="hsl(228.5, 77.2%, 51.5%)" stroke-width="1.5"></path><path d="M1410.87 386.19L1252.82 355.18" stroke="hsl(228.5, 77.2%, 51.5%)" stroke-width="1.5"></path><path d="M1410.87 386.19L1431.49 555.25" stroke="hsl(228.5, 77.2%, 51.5%)" stroke-width="1.5"></path><path d="M1410.87 386.19L1312.42 241.3" stroke="hsl(228.5, 77.2%, 51.5%)" stroke-width="1.5"></path><path d="M1446.36 670.82L1446.36 670.82" stroke="hsl(228.5, 77.2%, 51.5%)" stroke-width="1.5"></path><path d="M1446.36 670.82L1431.49 555.25" stroke="hsl(228.5, 77.2%, 51.5%)" stroke-width="1.5"></path><path d="M1546.44 109.82L1546.44 109.82" stroke="hsl(228.5, 77.2%, 51.5%)" stroke-width="1.5"></path><path d="M1546.44 109.82L1550.4 243.93" stroke="hsl(228.5, 77.2%, 51.5%)" stroke-width="1.5"></path><path d="M1546.44 109.82L1458.05 259.1" stroke="hsl(228.5, 77.2%, 51.5%)" stroke-width="1.5"></path><path d="M1546.44 109.82L1540.47 -68.17" stroke="hsl(228.5, 77.2%, 51.5%)" stroke-width="1.5"></path><path d="M-96.47 672.39L-96.47 672.39" stroke="hsl(228.5, 77.2%, 51.5%)" stroke-width="1.5"></path><path d="M-96.47 672.39L78.51 646.18" stroke="hsl(228.5, 77.2%, 51.5%)" stroke-width="1.5"></path><path d="M78.51 646.18L78.51 646.18" stroke="hsl(228.5, 77.2%, 51.5%)" stroke-width="1.5"></path><path d="M196.1 496.6L196.1 496.6" stroke="hsl(228.5, 77.2%, 51.5%)" stroke-width="1.5"></path><path d="M196.1 496.6L256.31 670.87" stroke="hsl(228.5, 77.2%, 51.5%)" stroke-width="1.5"></path><path d="M196.1 496.6L78.51 646.18" stroke="hsl(228.5, 77.2%, 51.5%)" stroke-width="1.5"></path><path d="M196.1 496.6L404.53 517.44" stroke="hsl(228.5, 77.2%, 51.5%)" stroke-width="1.5"></path><path d="M256.31 670.87L256.31 670.87" stroke="hsl(228.5, 77.2%, 51.5%)" stroke-width="1.5"></path><path d="M256.31 670.87L410.42 674.95" stroke="hsl(228.5, 77.2%, 51.5%)" stroke-width="1.5"></path><path d="M256.31 670.87L78.51 646.18" stroke="hsl(228.5, 77.2%, 51.5%)" stroke-width="1.5"></path><path d="M404.53 517.44L404.53 517.44" stroke="hsl(228.5, 77.2%, 51.5%)" stroke-width="1.5"></path><path d="M404.53 517.44L410.42 674.95" stroke="hsl(228.5, 77.2%, 51.5%)" stroke-width="1.5"></path><path d="M410.42 674.95L410.42 674.95" stroke="hsl(228.5, 77.2%, 51.5%)" stroke-width="1.5"></path><path d="M655.58 646.59L655.58 646.59" stroke="hsl(228.5, 77.2%, 51.5%)" stroke-width="1.5"></path><path d="M818.52 399.32L818.52 399.32" stroke="hsl(228.5, 77.2%, 51.5%)" stroke-width="1.5"></path><path d="M818.52 399.32L947.82 346.46" stroke="hsl(228.5, 77.2%, 51.5%)" stroke-width="1.5"></path><path d="M818.52 399.32L854.15 546.77" stroke="hsl(228.5, 77.2%, 51.5%)" stroke-width="1.5"></path><path d="M818.52 399.32L961.66 557.01" stroke="hsl(228.5, 77.2%, 51.5%)" stroke-width="1.5"></path><path d="M818.52 399.32L815 655.31" stroke="hsl(228.5, 77.2%, 51.5%)" stroke-width="1.5"></path><path d="M818.52 399.32L1108.85 363.98" stroke="hsl(228.5, 77.2%, 51.5%)" stroke-width="1.5"></path><path d="M854.15 546.77L854.15 546.77" stroke="hsl(228.5, 77.2%, 51.5%)" stroke-width="1.5"></path><path d="M854.15 546.77L961.66 557.01" stroke="hsl(228.5, 77.2%, 51.5%)" stroke-width="1.5"></path><path d="M854.15 546.77L947.82 346.46" stroke="hsl(228.5, 77.2%, 51.5%)" stroke-width="1.5"></path><path d="M854.15 546.77L655.58 646.59" stroke="hsl(228.5, 77.2%, 51.5%)" stroke-width="1.5"></path><path d="M947.82 346.46L947.82 346.46" stroke="hsl(228.5, 77.2%, 51.5%)" stroke-width="1.5"></path><path d="M947.82 346.46L1108.85 363.98" stroke="hsl(228.5, 77.2%, 51.5%)" stroke-width="1.5"></path><path d="M947.82 346.46L961.66 557.01" stroke="hsl(228.5, 77.2%, 51.5%)" stroke-width="1.5"></path><path d="M961.66 557.01L961.66 557.01" stroke="hsl(228.5, 77.2%, 51.5%)" stroke-width="1.5"></path><path d="M961.66 557.01L1119.19 548.13" stroke="hsl(228.5, 77.2%, 51.5%)" stroke-width="1.5"></path><path d="M1118.83 196.48L1118.83 196.48" stroke="hsl(228.5, 77.2%, 51.5%)" stroke-width="1.5"></path><path d="M1118.83 196.48L1108.85 363.98" stroke="hsl(228.5, 77.2%, 51.5%)" stroke-width="1.5"></path><path d="M1118.83 196.48L1312.42 241.3" stroke="hsl(228.5, 77.2%, 51.5%)" stroke-width="1.5"></path><path d="M1118.83 196.48L1252.82 355.18" stroke="hsl(228.5, 77.2%, 51.5%)" stroke-width="1.5"></path><path d="M1118.83 196.48L947.82 346.46" stroke="hsl(228.5, 77.2%, 51.5%)" stroke-width="1.5"></path><path d="M1108.85 363.98L1108.85 363.98" stroke="hsl(228.5, 77.2%, 51.5%)" stroke-width="1.5"></path><path d="M1108.85 363.98L1252.82 355.18" stroke="hsl(228.5, 77.2%, 51.5%)" stroke-width="1.5"></path><path d="M1119.19 548.13L1119.19 548.13" stroke="hsl(228.5, 77.2%, 51.5%)" stroke-width="1.5"></path><path d="M1119.19 548.13L1156.89 648.48" stroke="hsl(228.5, 77.2%, 51.5%)" stroke-width="1.5"></path><path d="M1119.19 548.13L1108.85 363.98" stroke="hsl(228.5, 77.2%, 51.5%)" stroke-width="1.5"></path><path d="M1156.89 648.48L1156.89 648.48" stroke="hsl(228.5, 77.2%, 51.5%)" stroke-width="1.5"></path><path d="M1156.89 648.48L1251.98 678.92" stroke="hsl(228.5, 77.2%, 51.5%)" stroke-width="1.5"></path><path d="M1252.27 -57.39L1252.27 -57.39" stroke="hsl(228.5, 77.2%, 51.5%)" stroke-width="1.5"></path><path d="M1252.27 -57.39L1416.96 56.97" stroke="hsl(228.5, 77.2%, 51.5%)" stroke-width="1.5"></path><path d="M1252.27 -57.39L1118.83 196.48" stroke="hsl(228.5, 77.2%, 51.5%)" stroke-width="1.5"></path><path d="M1312.42 241.3L1312.42 241.3" stroke="hsl(228.5, 77.2%, 51.5%)" stroke-width="1.5"></path><path d="M1312.42 241.3L1252.82 355.18" stroke="hsl(228.5, 77.2%, 51.5%)" stroke-width="1.5"></path><path d="M1312.42 241.3L1458.05 259.1" stroke="hsl(228.5, 77.2%, 51.5%)" stroke-width="1.5"></path><path d="M1252.82 355.18L1252.82 355.18" stroke="hsl(228.5, 77.2%, 51.5%)" stroke-width="1.5"></path><path d="M1251.98 678.92L1251.98 678.92" stroke="hsl(228.5, 77.2%, 51.5%)" stroke-width="1.5"></path><path d="M1251.98 678.92L1119.19 548.13" stroke="hsl(228.5, 77.2%, 51.5%)" stroke-width="1.5"></path><path d="M1251.98 678.92L1446.36 670.82" stroke="hsl(228.5, 77.2%, 51.5%)" stroke-width="1.5"></path><path d="M1251.98 678.92L1431.49 555.25" stroke="hsl(228.5, 77.2%, 51.5%)" stroke-width="1.5"></path><path d="M1458.05 259.1L1458.05 259.1" stroke="hsl(228.5, 77.2%, 51.5%)" stroke-width="1.5"></path><path d="M1458.05 259.1L1550.4 243.93" stroke="hsl(228.5, 77.2%, 51.5%)" stroke-width="1.5"></path><path d="M1431.49 555.25L1431.49 555.25" stroke="hsl(228.5, 77.2%, 51.5%)" stroke-width="1.5"></path><path d="M1431.49 555.25L1549.6 542.66" stroke="hsl(228.5, 77.2%, 51.5%)" stroke-width="1.5"></path><path d="M1431.49 555.25L1599.55 685.26" stroke="hsl(228.5, 77.2%, 51.5%)" stroke-width="1.5"></path><path d="M1540.47 -68.17L1540.47 -68.17" stroke="hsl(228.5, 77.2%, 51.5%)" stroke-width="1.5"></path><path d="M1550.4 243.93L1550.4 243.93" stroke="hsl(228.5, 77.2%, 51.5%)" stroke-width="1.5"></path><path d="M1550.4 243.93L1410.87 386.19" stroke="hsl(228.5, 77.2%, 51.5%)" stroke-width="1.5"></path><path d="M1550.4 243.93L1416.96 56.97" stroke="hsl(228.5, 77.2%, 51.5%)" stroke-width="1.5"></path><path d="M1550.4 243.93L1312.42 241.3" stroke="hsl(228.5, 77.2%, 51.5%)" stroke-width="1.5"></path><path d="M1550.4 243.93L1549.6 542.66" stroke="hsl(228.5, 77.2%, 51.5%)" stroke-width="1.5"></path><path d="M1549.6 542.66L1549.6 542.66" stroke="hsl(228.5, 77.2%, 51.5%)" stroke-width="1.5"></path><path d="M1549.6 542.66L1599.55 685.26" stroke="hsl(228.5, 77.2%, 51.5%)" stroke-width="1.5"></path><path d="M1549.6 542.66L1446.36 670.82" stroke="hsl(228.5, 77.2%, 51.5%)" stroke-width="1.5"></path><path d="M1549.6 542.66L1410.87 386.19" stroke="hsl(228.5, 77.2%, 51.5%)" stroke-width="1.5"></path><path d="M1549.6 542.66L1275.26 529.09" stroke="hsl(228.5, 77.2%, 51.5%)" stroke-width="1.5"></path><path d="M1599.55 685.26L1599.55 685.26" stroke="hsl(228.5, 77.2%, 51.5%)" stroke-width="1.5"></path><path d="M1599.55 685.26L1446.36 670.82" stroke="hsl(228.5, 77.2%, 51.5%)" stroke-width="1.5"></path><path d="M1599.55 685.26L1251.98 678.92" stroke="hsl(228.5, 77.2%, 51.5%)" stroke-width="1.5"></path><path d="M1599.55 685.26L1410.87 386.19" stroke="hsl(228.5, 77.2%, 51.5%)" stroke-width="1.5"></path><circle r="25" cx="-53.28" cy="506.9" fill="url(#SvgjsRadialGradient1001)"></circle><circle r="25" cx="81.77" cy="543.91" fill="url(#SvgjsRadialGradient1001)"></circle><circle r="25" cx="510.25" cy="641.14" fill="url(#SvgjsRadialGradient1001)"></circle><circle r="25" cx="815" cy="655.31" fill="url(#SvgjsRadialGradient1001)"></circle><circle r="25" cx="996.18" cy="651.94" fill="url(#SvgjsRadialGradient1001)"></circle><circle r="25" cx="1275.26" cy="529.09" fill="url(#SvgjsRadialGradient1001)"></circle><circle r="25" cx="1424.06" cy="-60.26" fill="url(#SvgjsRadialGradient1001)"></circle><circle r="25" cx="1416.96" cy="56.97" fill="url(#SvgjsRadialGradient1001)"></circle><circle r="25" cx="1410.87" cy="386.19" fill="url(#SvgjsRadialGradient1001)"></circle><circle r="25" cx="1446.36" cy="670.82" fill="url(#SvgjsRadialGradient1001)"></circle><circle r="25" cx="1546.44" cy="109.82" fill="url(#SvgjsRadialGradient1001)"></circle><circle r="5" cx="-96.47" cy="672.39" fill="#8b9ad9"></circle><circle r="5" cx="78.51" cy="646.18" fill="#8b9ad9"></circle><circle r="5" cx="196.1" cy="496.6" fill="#8b9ad9"></circle><circle r="5" cx="256.31" cy="670.87" fill="#8b9ad9"></circle><circle r="5" cx="404.53" cy="517.44" fill="#8b9ad9"></circle><circle r="5" cx="410.42" cy="674.95" fill="#8b9ad9"></circle><circle r="5" cx="655.58" cy="646.59" fill="#8b9ad9"></circle><circle r="5" cx="818.52" cy="399.32" fill="#8b9ad9"></circle><circle r="5" cx="854.15" cy="546.77" fill="#8b9ad9"></circle><circle r="5" cx="947.82" cy="346.46" fill="#8b9ad9"></circle><circle r="5" cx="961.66" cy="557.01" fill="#8b9ad9"></circle><circle r="5" cx="1118.83" cy="196.48" fill="#8b9ad9"></circle><circle r="5" cx="1108.85" cy="363.98" fill="#8b9ad9"></circle><circle r="5" cx="1119.19" cy="548.13" fill="#8b9ad9"></circle><circle r="5" cx="1156.89" cy="648.48" fill="#8b9ad9"></circle><circle r="5" cx="1252.27" cy="-57.39" fill="#8b9ad9"></circle><circle r="5" cx="1312.42" cy="241.3" fill="#8b9ad9"></circle><circle r="5" cx="1252.82" cy="355.18" fill="#8b9ad9"></circle><circle r="5" cx="1251.98" cy="678.92" fill="#8b9ad9"></circle><circle r="5" cx="1458.05" cy="259.1" fill="#8b9ad9"></circle><circle r="5" cx="1431.49" cy="555.25" fill="#8b9ad9"></circle><circle r="5" cx="1540.47" cy="-68.17" fill="#8b9ad9"></circle><circle r="5" cx="1550.4" cy="243.93" fill="#8b9ad9"></circle><circle r="5" cx="1549.6" cy="542.66" fill="#8b9ad9"></circle><circle r="5" cx="1599.55" cy="685.26" fill="#8b9ad9"></circle></g><defs><mask id="SvgjsMask1000"><rect width="1440" height="560" fill="#ffffff"></rect></mask><radialGradient id="SvgjsRadialGradient1001"><stop stop-color="#ffffff" offset="0.1"></stop><stop stop-color="#1735b3" offset="0.2"></stop><stop stop-color="rgba(23, 53, 179, 0)" offset="1"></stop></radialGradient></defs></svg>